<?xml version="1.0" encoding="UTF-8"?>
<svg xmlns="http://www.w3.org/2000/svg" xmlns:xlink="http://www.w3.org/1999/xlink" width="1800px" height="1200px" viewBox="0 0 1800 1200" version="1.1">
<g id="surface1">
<path style=" stroke:none;fill-rule:evenodd;fill:rgb(100%,17.647059%,12.54902%);fill-opacity:1;" d="M 1288.117188 380.980469 C 1288.40625 382.046875 1288.554688 383.148438 1288.554688 384.253906 L 1288.554688 555.96875 C 1288.554688 560.457031 1286.15625 564.601562 1282.265625 566.832031 L 1138.140625 649.8125 L 1138.140625 814.28125 C 1138.140625 818.757812 1135.761719 822.890625 1131.878906 825.144531 L 831.027344 998.332031 C 830.339844 998.722656 829.589844 998.976562 828.835938 999.242188 C 828.554688 999.335938 828.289062 999.507812 827.992188 999.585938 C 825.890625 1000.140625 823.679688 1000.140625 821.574219 999.585938 C 821.230469 999.492188 820.917969 999.304688 820.589844 999.179688 C 819.902344 998.929688 819.179688 998.707031 818.523438 998.332031 L 517.734375 825.144531 C 513.847656 822.910156 511.445312 818.769531 511.445312 814.28125 L 511.445312 299.128906 C 511.445312 298.003906 511.601562 296.90625 511.882812 295.84375 C 511.976562 295.484375 512.195312 295.152344 512.320312 294.792969 C 512.554688 294.136719 512.773438 293.464844 513.117188 292.851562 C 513.351562 292.445312 513.699219 292.117188 513.980469 291.742188 C 514.339844 291.242188 514.667969 290.726562 515.089844 290.285156 C 515.449219 289.925781 515.917969 289.660156 516.328125 289.347656 C 516.78125 288.972656 517.1875 288.566406 517.703125 288.265625 L 517.71875 288.265625 L 668.121094 201.671875 C 671.996094 199.441406 676.765625 199.441406 680.640625 201.671875 L 831.042969 288.265625 L 831.074219 288.265625 C 831.574219 288.582031 832 288.972656 832.453125 289.332031 C 832.859375 289.644531 833.3125 289.925781 833.671875 290.269531 C 834.109375 290.726562 834.425781 291.242188 834.800781 291.742188 C 835.066406 292.117188 835.425781 292.445312 835.644531 292.851562 C 836.003906 293.480469 836.207031 294.136719 836.457031 294.792969 C 836.582031 295.152344 836.804688 295.484375 836.898438 295.859375 C 837.183594 296.925781 837.332031 298.023438 837.335938 299.128906 L 837.335938 620.890625 L 962.664062 548.722656 L 962.664062 384.238281 C 962.664062 383.140625 962.820312 382.03125 963.101562 380.980469 C 963.210938 380.605469 963.417969 380.277344 963.542969 379.917969 C 963.792969 379.261719 964.011719 378.585938 964.355469 377.976562 C 964.589844 377.570312 964.933594 377.242188 965.199219 376.867188 C 965.574219 376.363281 965.890625 375.847656 966.328125 375.410156 C 966.6875 375.050781 967.140625 374.785156 967.546875 374.472656 C 968.015625 374.09375 968.425781 373.6875 968.925781 373.390625 L 968.941406 373.390625 L 1119.359375 286.796875 C 1123.234375 284.5625 1128.003906 284.5625 1131.878906 286.796875 L 1282.28125 373.390625 C 1282.8125 373.703125 1283.21875 374.09375 1283.6875 374.457031 C 1284.082031 374.769531 1284.535156 375.050781 1284.894531 375.394531 C 1285.332031 375.847656 1285.644531 376.363281 1286.019531 376.867188 C 1286.300781 377.242188 1286.648438 377.570312 1286.867188 377.976562 C 1287.226562 378.585938 1287.429688 379.261719 1287.679688 379.917969 C 1287.820312 380.277344 1288.023438 380.605469 1288.117188 380.980469 Z M 1263.484375 548.722656 L 1263.484375 405.929688 L 1210.851562 436.226562 L 1138.140625 478.09375 L 1138.140625 620.890625 L 1263.5 548.722656 Z M 1113.082031 807.035156 L 1113.082031 664.148438 L 1041.558594 704.996094 L 837.320312 821.558594 L 837.320312 965.796875 Z M 536.515625 320.804688 L 536.515625 807.035156 L 812.246094 965.78125 L 812.246094 821.574219 L 668.199219 740.050781 L 668.152344 740.019531 L 668.089844 739.988281 C 667.605469 739.707031 667.199219 739.300781 666.742188 738.957031 C 666.351562 738.644531 665.898438 738.394531 665.554688 738.050781 L 665.523438 738 C 665.117188 737.609375 664.835938 737.125 664.492188 736.6875 C 664.175781 736.265625 663.800781 735.90625 663.550781 735.464844 L 663.535156 735.417969 C 663.253906 734.949219 663.082031 734.386719 662.878906 733.855469 C 662.675781 733.386719 662.410156 732.945312 662.285156 732.445312 L 662.285156 732.429688 C 662.128906 731.835938 662.097656 731.210938 662.035156 730.597656 C 661.972656 730.128906 661.84375 729.660156 661.84375 729.191406 L 661.84375 392.96875 L 589.148438 351.089844 L 536.515625 320.820312 Z M 674.398438 226.996094 L 549.082031 299.128906 L 674.367188 371.261719 L 799.664062 299.113281 L 674.367188 226.996094 Z M 739.566406 677.167969 L 812.261719 635.320312 L 812.261719 320.804688 L 759.628906 351.105469 L 686.917969 392.96875 L 686.917969 707.484375 Z M 1125.617188 312.117188 L 1000.320312 384.253906 L 1125.617188 456.386719 L 1250.902344 384.238281 Z M 1113.082031 478.09375 L 1040.371094 436.226562 L 987.738281 405.929688 L 987.738281 548.722656 L 1060.433594 590.574219 L 1113.082031 620.890625 Z M 824.769531 799.882812 L 1008.550781 694.960938 L 1100.421875 642.535156 L 975.214844 570.445312 L 831.058594 653.441406 L 699.671875 729.082031 Z M 824.769531 799.882812 "/>
</g>
</svg>
